<?xml version="1.0" ?><!DOCTYPE svg  PUBLIC '-//W3C//DTD SVG 1.1//EN'  'http://www.w3.org/Graphics/SVG/1.1/DTD/svg11.dtd'><svg enable-background="new 0 0 300 300" height="300px" id="Layer_1" version="1.1" viewBox="0 0 300 300" width="300px" xml:space="preserve" xmlns="http://www.w3.org/2000/svg" xmlns:xlink="http://www.w3.org/1999/xlink"><path d="  M76.5,208.5c0,8.284,6.716,15,15,15h117c8.284,0,15-6.716,15-15v-117c0-8.284-6.716-15-15-15h-117c-8.284,0-15,6.716-15,15V208.5z" fill="none" stroke="#000000" stroke-linecap="round" stroke-linejoin="round" stroke-miterlimit="10" stroke-width="7"/><g><path d="M154.092,155.191h-10.824v19.096c0,2.641-2.2,4.84-4.928,4.84c-2.64,0-4.84-2.199-4.84-4.84v-51.918   c0-2.729,2.2-4.84,4.84-4.84h0.088h15.664c10.471,0,18.919,8.447,18.919,18.92C173.011,146.744,164.563,155.191,154.092,155.191z    M143.268,145.424h10.824c5.104,0,9.063-4.047,9.151-8.975c-0.089-5.104-4.048-9.152-9.151-9.152h-10.824V145.424z"/></g></svg>